<?xml version="1.0" standalone="no"?>
<!DOCTYPE svg PUBLIC "-//W3C//DTD SVG 20010904//EN"
 "http://www.w3.org/TR/2001/REC-SVG-20010904/DTD/svg10.dtd">
<svg version="1.0" xmlns="http://www.w3.org/2000/svg"
 width="512.000000pt" height="512.000000pt" viewBox="0 0 512.000000 512.000000"
 preserveAspectRatio="xMidYMid meet">

<g transform="translate(0.000000,512.000000) scale(0.100000,-0.100000)"
fill="#000000" stroke="none">
<path d="M535 5104 c-194 -40 -372 -178 -459 -356 -82 -167 -76 -7 -76 -2188
0 -2181 -6 -2021 76 -2188 64 -132 164 -232 296 -296 167 -82 7 -76 2188 -76
2181 0 2021 -6 2188 76 132 64 232 164 296 296 82 167 76 7 76 2188 0 2181 6
2021 -76 2188 -64 132 -164 232 -296 296 -167 82 -5 76 -2195 75 -1655 -1
-1959 -3 -2018 -15z m3533 -2121 l2 -1543 -1510 0 -1510 0 0 324 c0 179 4 327
8 330 5 3 91 -11 193 -30 570 -108 923 -111 1323 -8 443 113 805 394 994 771
42 83 83 183 76 183 -2 0 -37 -27 -77 -61 -113 -96 -299 -215 -441 -284 -419
-203 -811 -230 -1426 -100 -63 13 -233 51 -378 85 -145 33 -265 60 -267 60 -3
0 -5 45 -5 99 0 115 -13 103 140 122 176 21 343 6 725 -66 294 -55 403 -68
595 -67 184 0 329 16 470 52 384 98 676 321 830 635 74 151 74 157 -1 95 -211
-176 -463 -300 -708 -349 -272 -55 -503 -34 -1061 94 -420 96 -440 100 -600
100 -152 0 -235 -17 -332 -66 -20 -10 -42 -19 -48 -19 -7 0 -10 190 -10 595
l0 595 1508 -2 1507 -3 3 -1542z m-2617 -1868 c63 -23 115 -59 149 -107 17
-22 30 -45 30 -50 0 -4 -23 -8 -51 -8 -43 0 -54 4 -72 26 -64 82 -230 83 -304
3 -58 -64 -58 -174 0 -238 72 -78 220 -80 295 -5 29 29 41 34 83 34 27 0 49
-2 49 -5 0 -19 -35 -67 -73 -102 -102 -94 -286 -97 -402 -8 -58 44 -88 106
-93 194 -3 69 -1 81 25 130 15 30 45 67 65 84 76 61 207 84 299 52z m912 -249
c65 -140 117 -257 117 -260 0 -3 -24 -6 -52 -6 l-53 1 -27 59 -27 60 -123 0
-123 0 -27 -60 -26 -60 -57 0 c-31 0 -54 3 -52 8 6 8 177 380 213 460 l23 52
49 0 49 0 116 -254z m759 244 c45 -13 95 -68 103 -114 14 -73 -38 -147 -113
-162 -37 -8 -38 -11 -14 -38 10 -12 49 -60 86 -108 l67 -88 -63 0 -63 1 -85
114 c-78 106 -87 115 -117 115 l-33 0 0 -115 0 -115 -50 0 -50 0 0 260 0 260
148 0 c81 0 164 -5 184 -10z m755 -5 c70 -21 123 -63 157 -125 24 -44 29 -65
29 -120 0 -119 -71 -211 -188 -246 -38 -10 -89 -14 -186 -12 l-134 3 -3 245
c-1 134 0 250 3 257 7 19 256 18 322 -2z"/>
<path d="M3907 3980 c-79 -64 -215 -144 -306 -179 -117 -45 -220 -63 -361 -63
-150 0 -246 15 -569 89 -351 80 -473 82 -617 14 -109 -52 -208 -162 -259 -289
-44 -110 -50 -104 77 -61 247 84 361 82 868 -12 165 -31 414 -31 559 0 306 65
537 239 648 488 13 31 23 57 21 58 -2 1 -29 -19 -61 -45z"/>
<path d="M2157 903 c-20 -48 -35 -88 -33 -90 2 -2 38 -3 79 -1 l76 3 -35 80
c-19 44 -38 83 -42 87 -4 4 -24 -31 -45 -79z"/>
<path d="M2890 969 l0 -61 99 4 c80 2 103 7 120 22 26 24 27 50 1 76 -17 17
-33 20 -120 20 l-100 0 0 -61z"/>
<path d="M3650 860 l0 -170 88 0 c99 0 154 19 190 65 69 87 38 210 -62 256
-30 13 -65 19 -128 19 l-88 0 0 -170z"/>
</g>
</svg>
