<svg version="1.1" id="Layer_1" xmlns="http://www.w3.org/2000/svg" xmlns:xlink="http://www.w3.org/1999/xlink" x="0px" y="0px"
	 width="100%" viewBox="0 0 4096 1404" enable-background="new 0 0 4096 1404" xml:space="preserve">
<path fill="#00538A" opacity="1.000000" stroke="none" 
	d="
M3928.000000,1406.000000 
	C2619.431641,1406.000000 1310.863403,1406.000000 2.147542,1406.000000 
	C2.147542,938.133606 2.147542,470.267090 2.147542,2.200305 
	C1367.097168,2.200305 2732.194336,2.200305 4098.000000,2.200305 
	C4098.000000,416.731873 4098.000000,831.464111 4097.246094,1246.936035 
	C4095.002686,1251.265015 4093.204834,1254.759888 4092.072266,1258.458496 
	C4080.271240,1297.000122 4059.226807,1329.559326 4028.151123,1355.187622 
	C4000.376221,1378.093506 3969.521240,1395.288818 3933.602783,1402.030884 
	C3931.248291,1402.472656 3927.908447,1401.931396 3928.000000,1406.000000 
M624.809692,842.191406 
	C586.859985,804.728699 549.573608,766.559326 510.706421,730.074036 
	C488.169678,708.918335 488.156616,680.829529 510.832001,658.980286 
	C574.427063,597.702209 636.718018,535.070923 699.568359,473.018951 
	C703.413330,469.222778 706.383789,465.745178 706.361328,459.516418 
	C706.098511,386.527252 706.199829,313.536804 706.150208,240.546707 
	C706.148865,238.532883 705.536865,236.519470 705.209656,234.505875 
	C704.477966,234.125366 703.746216,233.744858 703.014526,233.364334 
	C700.750427,236.267776 698.783142,239.473343 696.179688,242.031296 
	C575.170288,360.923340 454.103699,479.757172 333.049042,598.603088 
	C314.974030,616.348328 296.825470,634.020264 278.894623,651.910217 
	C264.480133,666.291870 258.915039,683.755005 261.735168,703.929749 
	C263.924805,719.594238 272.519623,731.383057 283.528015,742.176697 
	C421.793304,877.745117 559.939392,1013.435120 698.128479,1149.081299 
	C700.171448,1151.086670 702.374023,1152.929199 705.659546,1155.891235 
	C705.870056,1152.615479 706.094238,1150.754517 706.094116,1148.893433 
	C706.089661,1075.570068 706.001892,1002.246521 706.173950,928.923523 
	C706.186462,923.607788 703.993103,920.342285 700.528564,916.940613 
	C675.558105,892.422974 650.705261,867.785461 624.809692,842.191406 
M1167.145264,782.146484 
	C1182.591309,766.963501 1198.337646,752.071838 1213.413696,736.529907 
	C1236.547607,712.681213 1236.330688,676.664490 1213.408447,652.728577 
	C1210.874268,650.082275 1208.218506,647.551941 1205.603149,644.984009 
	C1068.412109,510.284088 931.219849,375.585510 794.022766,240.891754 
	C791.746643,238.657135 789.409607,236.484619 785.820557,233.062103 
	C785.559326,238.016006 785.247986,241.182022 785.246704,244.348175 
	C785.219055,314.989838 785.335510,385.631927 785.060608,456.272522 
	C785.032227,463.576996 787.221558,468.584076 792.373657,473.651276 
	C854.852966,535.102173 917.122986,596.765747 979.441223,658.380371 
	C982.283997,661.191040 985.216614,663.930420 987.853577,666.926392 
	C1001.829285,682.804749 1002.022827,705.720337 988.285034,721.757507 
	C985.474121,725.038818 982.290222,728.006897 979.210205,731.050476 
	C916.874756,792.648193 854.556396,854.263245 792.126282,915.764832 
	C787.888123,919.940002 785.428101,923.942688 785.448486,930.357056 
	C785.677795,1002.663940 785.540710,1074.971924 785.543823,1147.279663 
	C785.543945,1149.718018 785.984131,1152.156250 786.358337,1156.038330 
	C913.744812,1030.959473 1039.941162,907.049072 1167.145264,782.146484 
M2797.751465,882.373352 
	C2798.537109,877.107971 2799.942627,871.849792 2800.004639,866.575867 
	C2800.333740,838.600037 2801.500977,810.563721 2800.160400,782.654907 
	C2798.120850,740.187500 2775.996338,711.115112 2736.571045,695.331177 
	C2730.257080,692.803284 2723.642334,691.026978 2715.684814,688.417297 
	C2719.704834,686.378784 2722.553711,684.964294 2725.374268,683.496094 
	C2728.621094,681.805847 2731.869629,680.115173 2735.072510,678.343750 
	C2764.833496,661.882996 2779.946777,636.630615 2780.158936,602.628540 
	C2780.304688,579.306335 2780.627686,555.970642 2780.043701,532.661682 
	C2778.811523,483.488953 2753.723389,449.801697 2707.184082,433.793427 
	C2682.342041,425.248413 2656.618896,422.034485 2630.527344,421.962555 
	C2551.560303,421.744812 2472.592529,421.824829 2393.625000,421.834717 
	C2391.119629,421.835022 2388.614258,422.337280 2386.591309,422.553894 
	C2386.591309,608.545532 2386.591309,793.627930 2386.591309,979.096069 
	C2388.905518,979.247009 2390.524170,979.445129 2392.142578,979.444824 
	C2475.441650,979.427368 2558.740967,979.531921 2642.039307,979.262573 
	C2662.709473,979.195679 2683.293701,977.120483 2703.378174,971.795227 
	C2750.371094,959.335266 2785.051758,933.609985 2797.751465,882.373352 
M1950.866211,889.960449 
	C1953.854126,881.252808 1956.841919,872.545166 1959.642822,864.382507 
	C2034.462402,864.382507 2108.015625,864.382507 2181.834717,864.382507 
	C2194.435303,902.963013 2206.905518,941.143982 2219.220947,978.851257 
	C2243.892090,980.800415 2329.431152,979.955017 2337.296387,977.607056 
	C2274.576660,792.363953 2211.865234,607.144775 2149.109619,421.795593 
	C2145.801514,421.795593 2143.489746,421.795471 2141.177734,421.795624 
	C2107.178711,421.797974 2073.169434,422.316162 2039.183838,421.647491 
	C2009.336914,421.060272 1984.650146,439.858032 1975.246826,467.850861 
	C1918.857666,635.713867 1861.950317,803.402710 1805.248047,971.160461 
	C1804.438477,973.555908 1804.031128,976.087158 1803.347778,978.921265 
	C1843.050781,978.921265 1881.921631,978.921265 1921.144775,978.921265 
	C1930.958862,949.509460 1940.645142,920.480408 1950.866211,889.960449 
M3263.149414,979.467468 
	C3295.614746,979.467468 3328.080078,979.467468 3361.901367,979.467468 
	C3298.597656,792.497498 3235.885254,607.273621 3173.233398,422.229279 
	C3170.964600,422.032532 3169.653076,421.819611 3168.341309,421.819641 
	C3137.008545,421.820435 3105.676025,421.809235 3074.343506,421.907135 
	C3070.362793,421.919586 3066.306885,422.138733 3062.416504,422.915680 
	C3028.073730,429.773956 3005.155762,449.884766 2993.930420,483.006805 
	C2938.801514,645.674500 2883.760498,808.371887 2828.720703,971.069763 
	C2827.904541,973.482910 2827.501709,976.036011 2826.787109,979.020020 
	C2866.380859,979.020020 2905.248535,979.020020 2944.781250,979.020020 
	C2957.730469,940.501709 2970.615723,902.174133 2983.343750,864.313965 
	C3058.203125,864.313965 3131.801025,864.313965 3205.577393,864.313965 
	C3218.233398,902.852539 3230.769531,941.026489 3243.393555,979.467468 
	C3249.943604,979.467468 3255.575195,979.467468 3263.149414,979.467468 
M1387.965454,729.000000 
	C1387.966309,756.987976 1387.777832,784.977905 1388.060791,812.963074 
	C1388.174927,824.261353 1388.610352,835.645142 1390.120361,846.825073 
	C1396.263794,892.310425 1418.456665,927.500793 1459.244141,949.487427 
	C1472.029419,956.379333 1485.926025,961.578125 1499.810425,965.989197 
	C1533.156250,976.583252 1567.851562,978.534119 1602.487671,979.018494 
	C1650.124878,979.684753 1697.778320,979.198181 1745.424805,979.143066 
	C1747.588745,979.140564 1749.751831,978.523621 1752.111450,978.162842 
	C1752.111450,962.570923 1752.160034,947.605164 1752.060425,932.640381 
	C1752.045044,930.345032 1751.501831,928.015625 1750.941284,925.767212 
	C1744.810059,901.174927 1724.659912,884.346436 1699.180420,883.545898 
	C1679.208130,882.918457 1659.201294,883.471069 1639.213013,883.237915 
	C1620.242920,883.016785 1601.267700,882.689697 1582.311768,881.965942 
	C1568.610352,881.442810 1555.189209,878.883972 1542.359131,873.861206 
	C1523.439575,866.454468 1510.621216,853.245178 1505.703003,833.342651 
	C1503.642334,825.003296 1501.924561,816.315674 1501.893188,807.779602 
	C1501.607544,730.148315 1501.727539,652.515503 1501.741211,574.883179 
	C1501.741455,573.219116 1501.864990,571.553589 1501.968872,569.891113 
	C1504.263916,533.192566 1522.850220,511.238983 1558.960205,504.321136 
	C1572.613770,501.705414 1586.703613,500.392456 1600.611938,500.256683 
	C1649.586548,499.778625 1698.568726,500.069214 1747.547974,500.068176 
	C1751.059204,500.068115 1754.570312,500.068176 1758.686523,500.068176 
	C1758.686523,487.406097 1758.737915,476.111359 1758.660522,464.817505 
	C1758.630859,460.491302 1758.392578,456.160889 1758.078003,451.844849 
	C1757.934082,449.870270 1757.495239,447.894379 1756.987915,445.972473 
	C1750.403931,421.036987 1729.213135,404.623260 1702.474609,404.370026 
	C1673.156250,404.092316 1643.823730,403.836639 1614.515503,404.443481 
	C1590.900146,404.932404 1567.225464,405.841797 1543.733521,408.153992 
	C1514.738647,411.007751 1486.776733,418.526672 1460.872314,432.394623 
	C1427.497681,450.261658 1405.085693,477.208405 1394.680664,513.729065 
	C1390.005981,530.136902 1387.968628,546.977966 1387.979004,564.069031 
	C1388.012085,618.379333 1387.975342,672.689697 1387.965454,729.000000 
M3502.740723,413.656799 
	C3490.410156,413.660278 3478.066895,414.030243 3465.751709,413.596527 
	C3432.611816,412.429474 3401.383301,440.236237 3401.942383,477.571136 
	C3402.261963,498.894897 3401.989502,520.227478 3401.989258,541.556091 
	C3401.988281,683.524780 3401.985840,825.493530 3402.005127,967.462219 
	C3402.005615,971.293152 3402.247559,975.124084 3402.369873,978.745056 
	C3424.301514,980.801453 3753.769287,979.912231 3761.032227,977.885559 
	C3761.032227,947.708374 3761.032227,917.519165 3761.032227,886.257080 
	C3679.034912,886.257080 3597.587158,886.257080 3515.246094,886.257080 
	C3515.246094,728.371094 3515.246094,571.560913 3515.246094,413.656830 
	C3511.122559,413.656830 3507.892334,413.656830 3502.740723,413.656799 
z"/>
<path fill="#000101" opacity="1.000000" stroke="none" 
	d="
M3928.937256,1406.000000 
	C3927.908447,1401.931396 3931.248291,1402.472656 3933.602783,1402.030884 
	C3969.521240,1395.288818 4000.376221,1378.093506 4028.151123,1355.187622 
	C4059.226807,1329.559326 4080.271240,1297.000122 4092.072266,1258.458496 
	C4093.204834,1254.759888 4095.002686,1251.265015 4097.246094,1247.837891 
	C4098.000000,1300.525879 4098.000000,1353.051636 4098.000000,1406.000000 
	C4041.958984,1406.000000 3985.916748,1406.000000 3928.937256,1406.000000 
z"/>
<path fill="#FEFEFF" opacity="1.000000" stroke="none" 
	d="
M625.312439,842.688721 
	C650.705261,867.785461 675.558105,892.422974 700.528564,916.940613 
	C703.993103,920.342285 706.186462,923.607788 706.173950,928.923523 
	C706.001892,1002.246521 706.089661,1075.570068 706.094116,1148.893433 
	C706.094238,1150.754517 705.870056,1152.615479 705.659546,1155.891235 
	C702.374023,1152.929199 700.171448,1151.086670 698.128479,1149.081299 
	C559.939392,1013.435120 421.793304,877.745117 283.528015,742.176697 
	C272.519623,731.383057 263.924805,719.594238 261.735168,703.929749 
	C258.915039,683.755005 264.480133,666.291870 278.894623,651.910217 
	C296.825470,634.020264 314.974030,616.348328 333.049042,598.603088 
	C454.103699,479.757172 575.170288,360.923340 696.179688,242.031296 
	C698.783142,239.473343 700.750427,236.267776 703.014526,233.364334 
	C703.746216,233.744858 704.477966,234.125366 705.209656,234.505875 
	C705.536865,236.519470 706.148865,238.532883 706.150208,240.546707 
	C706.199829,313.536804 706.098511,386.527252 706.361328,459.516418 
	C706.383789,465.745178 703.413330,469.222778 699.568359,473.018951 
	C636.718018,535.070923 574.427063,597.702209 510.832001,658.980286 
	C488.156616,680.829529 488.169678,708.918335 510.706421,730.074036 
	C549.573608,766.559326 586.859985,804.728699 625.312439,842.688721 
z"/>
<path fill="#FEFEFF" opacity="1.000000" stroke="none" 
	d="
M1166.641357,782.642578 
	C1039.941162,907.049072 913.744812,1030.959473 786.358337,1156.038330 
	C785.984131,1152.156250 785.543945,1149.718018 785.543823,1147.279663 
	C785.540710,1074.971924 785.677795,1002.663940 785.448486,930.357056 
	C785.428101,923.942688 787.888123,919.940002 792.126282,915.764832 
	C854.556396,854.263245 916.874756,792.648193 979.210205,731.050476 
	C982.290222,728.006897 985.474121,725.038818 988.285034,721.757507 
	C1002.022827,705.720337 1001.829285,682.804749 987.853577,666.926392 
	C985.216614,663.930420 982.283997,661.191040 979.441223,658.380371 
	C917.122986,596.765747 854.852966,535.102173 792.373657,473.651276 
	C787.221558,468.584076 785.032227,463.576996 785.060608,456.272522 
	C785.335510,385.631927 785.219055,314.989838 785.246704,244.348175 
	C785.247986,241.182022 785.559326,238.016006 785.820557,233.062103 
	C789.409607,236.484619 791.746643,238.657135 794.022766,240.891754 
	C931.219849,375.585510 1068.412109,510.284088 1205.603149,644.984009 
	C1208.218506,647.551941 1210.874268,650.082275 1213.408447,652.728577 
	C1236.330688,676.664490 1236.547607,712.681213 1213.413696,736.529907 
	C1198.337646,752.071838 1182.591309,766.963501 1166.641357,782.642578 
z"/>
<path fill="#FEFEFE" opacity="1.000000" stroke="none" 
	d="
M2797.582275,883.194092 
	C2785.051758,933.609985 2750.371094,959.335266 2703.378174,971.795227 
	C2683.293701,977.120483 2662.709473,979.195679 2642.039307,979.262573 
	C2558.740967,979.531921 2475.441650,979.427368 2392.142578,979.444824 
	C2390.524170,979.445129 2388.905518,979.247009 2386.591309,979.096069 
	C2386.591309,793.627930 2386.591309,608.545532 2386.591309,422.553894 
	C2388.614258,422.337280 2391.119629,421.835022 2393.625000,421.834717 
	C2472.592529,421.824829 2551.560303,421.744812 2630.527344,421.962555 
	C2656.618896,422.034485 2682.342041,425.248413 2707.184082,433.793427 
	C2753.723389,449.801697 2778.811523,483.488953 2780.043701,532.661682 
	C2780.627686,555.970642 2780.304688,579.306335 2780.158936,602.628540 
	C2779.946777,636.630615 2764.833496,661.882996 2735.072510,678.343750 
	C2731.869629,680.115173 2728.621094,681.805847 2725.374268,683.496094 
	C2722.553711,684.964294 2719.704834,686.378784 2715.684814,688.417297 
	C2723.642334,691.026978 2730.257080,692.803284 2736.571045,695.331177 
	C2775.996338,711.115112 2798.120850,740.187500 2800.160400,782.654907 
	C2801.500977,810.563721 2800.333740,838.600037 2800.004639,866.575867 
	C2799.942627,871.849792 2798.537109,877.107971 2797.582275,883.194092 
M2498.616943,856.995728 
	C2498.616943,868.534729 2498.616943,880.073730 2498.616943,891.179810 
	C2500.689941,891.739746 2501.331787,892.065491 2501.973389,892.064636 
	C2544.616699,892.011108 2587.266357,892.296509 2629.899170,891.586060 
	C2640.017090,891.417480 2650.397949,888.877075 2660.092773,885.701660 
	C2674.898193,880.852356 2683.478760,869.700745 2686.115723,854.323425 
	C2687.068359,848.768494 2687.652100,843.092041 2687.746826,837.459961 
	C2687.977051,823.804016 2687.991699,810.138489 2687.742920,796.483154 
	C2687.634033,790.519531 2687.069336,784.499939 2686.019531,778.629517 
	C2682.784912,760.541626 2672.375000,748.357300 2654.485352,743.808716 
	C2645.546387,741.535950 2636.138672,740.165833 2626.926025,740.072876 
	C2586.949951,739.669495 2546.967529,739.875183 2506.987549,739.906860 
	C2504.452148,739.908875 2501.916992,740.312866 2498.616943,740.595337 
	C2498.616943,779.158813 2498.616943,817.078186 2498.616943,856.995728 
M2570.999756,655.557678 
	C2588.612549,655.090149 2606.311279,655.553406 2623.818115,653.937134 
	C2650.199951,651.501526 2664.747803,637.256409 2666.458984,611.123352 
	C2667.867432,589.611511 2667.301758,567.905457 2666.453369,546.331055 
	C2665.757324,528.634705 2655.252197,517.234802 2638.512939,512.850281 
	C2628.336670,510.184784 2617.541260,508.950043 2606.998047,508.791382 
	C2573.728271,508.290863 2540.446777,508.586365 2507.169678,508.627655 
	C2504.616211,508.630798 2502.063232,509.054565 2499.675293,509.268097 
	C2497.692383,522.083069 2498.241943,648.074890 2500.373291,655.557617 
	C2523.134033,655.557617 2546.066650,655.557617 2570.999756,655.557678 
z"/>
<path fill="#FDFEFE" opacity="1.000000" stroke="none" 
	d="
M1950.598877,890.705933 
	C1940.645142,920.480408 1930.958862,949.509460 1921.144775,978.921265 
	C1881.921631,978.921265 1843.050781,978.921265 1803.347778,978.921265 
	C1804.031128,976.087158 1804.438477,973.555908 1805.248047,971.160461 
	C1861.950317,803.402710 1918.857666,635.713867 1975.246826,467.850861 
	C1984.650146,439.858032 2009.336914,421.060272 2039.183838,421.647491 
	C2073.169434,422.316162 2107.178711,421.797974 2141.177734,421.795624 
	C2143.489746,421.795471 2145.801514,421.795593 2149.109619,421.795593 
	C2211.865234,607.144775 2274.576660,792.363953 2337.296387,977.607056 
	C2329.431152,979.955017 2243.892090,980.800415 2219.220947,978.851257 
	C2206.905518,941.143982 2194.435303,902.963013 2181.834717,864.382507 
	C2108.015625,864.382507 2034.462402,864.382507 1959.642822,864.382507 
	C1956.841919,872.545166 1953.854126,881.252808 1950.598877,890.705933 
M2098.525146,598.427307 
	C2089.469238,569.680664 2080.413330,540.934082 2071.357422,512.187500 
	C2070.665283,512.107788 2069.973145,512.028137 2069.281250,511.948425 
	C2042.394531,598.363464 2015.328247,684.722351 1988.484253,771.783203 
	C2043.861694,771.783203 2097.989502,771.783203 2153.378418,771.783203 
	C2135.115479,713.935547 2117.115479,656.921021 2098.525146,598.427307 
z"/>
<path fill="#FDFEFE" opacity="1.000000" stroke="none" 
	d="
M3262.177979,979.467468 
	C3255.575195,979.467468 3249.943604,979.467468 3243.393555,979.467468 
	C3230.769531,941.026489 3218.233398,902.852539 3205.577393,864.313965 
	C3131.801025,864.313965 3058.203125,864.313965 2983.343750,864.313965 
	C2970.615723,902.174133 2957.730469,940.501709 2944.781250,979.020020 
	C2905.248535,979.020020 2866.380859,979.020020 2826.787109,979.020020 
	C2827.501709,976.036011 2827.904541,973.482910 2828.720703,971.069763 
	C2883.760498,808.371887 2938.801514,645.674500 2993.930420,483.006805 
	C3005.155762,449.884766 3028.073730,429.773956 3062.416504,422.915680 
	C3066.306885,422.138733 3070.362793,421.919586 3074.343506,421.907135 
	C3105.676025,421.809235 3137.008545,421.820435 3168.341309,421.819641 
	C3169.653076,421.819611 3170.964600,422.032532 3173.233398,422.229279 
	C3235.885254,607.273621 3298.597656,792.497498 3361.901367,979.467468 
	C3328.080078,979.467468 3295.614746,979.467468 3262.177979,979.467468 
M3068.302246,591.337463 
	C3049.731689,651.303162 3031.161133,711.268860 3012.485352,771.574707 
	C3067.892822,771.574707 3121.959473,771.574707 3177.118408,771.574707 
	C3149.583740,684.501343 3122.359863,598.410400 3095.135986,512.319519 
	C3094.422607,512.309387 3093.709229,512.299316 3092.995850,512.289185 
	C3084.928467,538.129944 3076.860840,563.970703 3068.302246,591.337463 
z"/>
<path fill="#FDFEFE" opacity="1.000000" stroke="none" 
	d="
M1387.965454,728.000000 
	C1387.975342,672.689697 1388.012085,618.379333 1387.979004,564.069031 
	C1387.968628,546.977966 1390.005981,530.136902 1394.680664,513.729065 
	C1405.085693,477.208405 1427.497681,450.261658 1460.872314,432.394623 
	C1486.776733,418.526672 1514.738647,411.007751 1543.733521,408.153992 
	C1567.225464,405.841797 1590.900146,404.932404 1614.515503,404.443481 
	C1643.823730,403.836639 1673.156250,404.092316 1702.474609,404.370026 
	C1729.213135,404.623260 1750.403931,421.036987 1756.987915,445.972473 
	C1757.495239,447.894379 1757.934082,449.870270 1758.078003,451.844849 
	C1758.392578,456.160889 1758.630859,460.491302 1758.660522,464.817505 
	C1758.737915,476.111359 1758.686523,487.406097 1758.686523,500.068176 
	C1754.570312,500.068176 1751.059204,500.068115 1747.547974,500.068176 
	C1698.568726,500.069214 1649.586548,499.778625 1600.611938,500.256683 
	C1586.703613,500.392456 1572.613770,501.705414 1558.960205,504.321136 
	C1522.850220,511.238983 1504.263916,533.192566 1501.968872,569.891113 
	C1501.864990,571.553589 1501.741455,573.219116 1501.741211,574.883179 
	C1501.727539,652.515503 1501.607544,730.148315 1501.893188,807.779602 
	C1501.924561,816.315674 1503.642334,825.003296 1505.703003,833.342651 
	C1510.621216,853.245178 1523.439575,866.454468 1542.359131,873.861206 
	C1555.189209,878.883972 1568.610352,881.442810 1582.311768,881.965942 
	C1601.267700,882.689697 1620.242920,883.016785 1639.213013,883.237915 
	C1659.201294,883.471069 1679.208130,882.918457 1699.180420,883.545898 
	C1724.659912,884.346436 1744.810059,901.174927 1750.941284,925.767212 
	C1751.501831,928.015625 1752.045044,930.345032 1752.060425,932.640381 
	C1752.160034,947.605164 1752.111450,962.570923 1752.111450,978.162842 
	C1749.751831,978.523621 1747.588745,979.140564 1745.424805,979.143066 
	C1697.778320,979.198181 1650.124878,979.684753 1602.487671,979.018494 
	C1567.851562,978.534119 1533.156250,976.583252 1499.810425,965.989197 
	C1485.926025,961.578125 1472.029419,956.379333 1459.244141,949.487427 
	C1418.456665,927.500793 1396.263794,892.310425 1390.120361,846.825073 
	C1388.610352,835.645142 1388.174927,824.261353 1388.060791,812.963074 
	C1387.777832,784.977905 1387.966309,756.987976 1387.965454,728.000000 
z"/>
<path fill="#FCFDFE" opacity="1.000000" stroke="none" 
	d="
M3503.701416,413.656799 
	C3507.892334,413.656830 3511.122559,413.656830 3515.246094,413.656830 
	C3515.246094,571.560913 3515.246094,728.371094 3515.246094,886.257080 
	C3597.587158,886.257080 3679.034912,886.257080 3761.032227,886.257080 
	C3761.032227,917.519165 3761.032227,947.708374 3761.032227,977.885559 
	C3753.769287,979.912231 3424.301514,980.801453 3402.369873,978.745056 
	C3402.247559,975.124084 3402.005615,971.293152 3402.005127,967.462219 
	C3401.985840,825.493530 3401.988281,683.524780 3401.989258,541.556091 
	C3401.989502,520.227478 3402.261963,498.894897 3401.942383,477.571136 
	C3401.383301,440.236237 3432.611816,412.429474 3465.751709,413.596527 
	C3478.066895,414.030243 3490.410156,413.660278 3503.701416,413.656799 
z"/>
<path fill="#02548B" opacity="1.000000" stroke="none" 
	d="
M2498.616943,855.996643 
	C2498.616943,817.078186 2498.616943,779.158813 2498.616943,740.595337 
	C2501.916992,740.312866 2504.452148,739.908875 2506.987549,739.906860 
	C2546.967529,739.875183 2586.949951,739.669495 2626.926025,740.072876 
	C2636.138672,740.165833 2645.546387,741.535950 2654.485352,743.808716 
	C2672.375000,748.357300 2682.784912,760.541626 2686.019531,778.629517 
	C2687.069336,784.499939 2687.634033,790.519531 2687.742920,796.483154 
	C2687.991699,810.138489 2687.977051,823.804016 2687.746826,837.459961 
	C2687.652100,843.092041 2687.068359,848.768494 2686.115723,854.323425 
	C2683.478760,869.700745 2674.898193,880.852356 2660.092773,885.701660 
	C2650.397949,888.877075 2640.017090,891.417480 2629.899170,891.586060 
	C2587.266357,892.296509 2544.616699,892.011108 2501.973389,892.064636 
	C2501.331787,892.065491 2500.689941,891.739746 2498.616943,891.179810 
	C2498.616943,880.073730 2498.616943,868.534729 2498.616943,855.996643 
z"/>
<path fill="#04568C" opacity="1.000000" stroke="none" 
	d="
M2569.999512,655.557617 
	C2546.066650,655.557617 2523.134033,655.557617 2500.373291,655.557617 
	C2498.241943,648.074890 2497.692383,522.083069 2499.675293,509.268097 
	C2502.063232,509.054565 2504.616211,508.630798 2507.169678,508.627655 
	C2540.446777,508.586365 2573.728271,508.290863 2606.998047,508.791382 
	C2617.541260,508.950043 2628.336670,510.184784 2638.512939,512.850281 
	C2655.252197,517.234802 2665.757324,528.634705 2666.453369,546.331055 
	C2667.301758,567.905457 2667.867432,589.611511 2666.458984,611.123352 
	C2664.747803,637.256409 2650.199951,651.501526 2623.818115,653.937134 
	C2606.311279,655.553406 2588.612549,655.090149 2569.999512,655.557617 
z"/>
<path fill="#02548B" opacity="1.000000" stroke="none" 
	d="
M2098.820312,599.166870 
	C2117.115479,656.921021 2135.115479,713.935547 2153.378418,771.783203 
	C2097.989502,771.783203 2043.861694,771.783203 1988.484253,771.783203 
	C2015.328247,684.722351 2042.394531,598.363464 2069.281250,511.948425 
	C2069.973145,512.028137 2070.665283,512.107788 2071.357422,512.187500 
	C2080.413330,540.934082 2089.469238,569.680664 2098.820312,599.166870 
z"/>
<path fill="#02548B" opacity="1.000000" stroke="none" 
	d="
M3068.547852,590.574463 
	C3076.860840,563.970703 3084.928467,538.129944 3092.995850,512.289185 
	C3093.709229,512.299316 3094.422607,512.309387 3095.135986,512.319519 
	C3122.359863,598.410400 3149.583740,684.501343 3177.118408,771.574707 
	C3121.959473,771.574707 3067.892822,771.574707 3012.485352,771.574707 
	C3031.161133,711.268860 3049.731689,651.303162 3068.547852,590.574463 
z"/>
</svg>