<svg version="1.1" id="Layer_1" xmlns="http://www.w3.org/2000/svg" xmlns:xlink="http://www.w3.org/1999/xlink" x="0px" y="0px"
	 width="100%" viewBox="0 0 2000 2000" enable-background="new 0 0 2000 2000" xml:space="preserve">
<path fill="#B29229" opacity="1.000000" stroke="none" 
	d="
M2001.000000,723.000000 
	C2001.000000,1149.333374 2001.000000,1575.166626 2001.000000,2001.000000 
	C1334.333374,2001.000000 667.666687,2001.000000 1.000000,2001.000000 
	C1.000000,1334.333374 1.000000,667.666687 1.000000,1.000000 
	C667.666687,1.000000 1334.333374,1.000000 2001.000000,1.000000 
	C2001.000000,241.500000 2001.000000,482.000000 2001.000000,723.000000 
M1969.000488,82.500000 
	C1969.000488,69.001251 1969.049194,55.502262 1968.984619,42.003819 
	C1968.936035,31.854237 1970.141724,33.015442 1959.836670,33.015148 
	C1320.683838,32.996853 681.530884,32.996658 42.377995,33.016399 
	C31.792383,33.016727 33.016205,31.759268 33.015888,42.289062 
	C32.996716,681.441956 32.996658,1320.594849 33.015907,1959.747681 
	C33.016224,1970.252808 31.800198,1968.982544 42.414783,1968.982910 
	C681.401001,1969.002686 1320.387207,1969.002808 1959.373413,1968.980713 
	C1970.336304,1968.980347 1968.980225,1970.332520 1968.980591,1959.459473 
	C1969.002808,1334.139648 1969.000488,708.819824 1969.000488,82.500000 
z"/>
<path fill="#47704C" opacity="1.000000" stroke="none" 
	d="
M1969.000488,83.000000 
	C1969.000488,708.819824 1969.002808,1334.139648 1968.980591,1959.459473 
	C1968.980225,1970.332520 1970.336304,1968.980347 1959.373413,1968.980713 
	C1320.387207,1969.002808 681.401001,1969.002686 42.414783,1968.982910 
	C31.800198,1968.982544 33.016224,1970.252808 33.015907,1959.747681 
	C32.996658,1320.594849 32.996716,681.441956 33.015888,42.289062 
	C33.016205,31.759268 31.792383,33.016727 42.377995,33.016399 
	C681.530884,32.996658 1320.683838,32.996853 1959.836670,33.015148 
	C1970.141724,33.015442 1968.936035,31.854237 1968.984619,42.003819 
	C1969.049194,55.502262 1969.000488,69.001251 1969.000488,83.000000 
M297.384308,324.255493 
	C280.900574,330.637451 265.302094,338.642426 252.077637,350.540131 
	C229.440170,370.906342 213.124039,395.626526 202.875580,424.260223 
	C193.629929,450.092072 189.037796,476.595795 190.805908,504.226318 
	C191.691025,518.058533 193.314819,531.672546 197.198135,544.899719 
	C203.862152,567.598267 214.024826,588.567749 230.564362,605.859253 
	C241.337936,617.122681 252.211792,628.338684 263.694427,638.862732 
	C277.099854,651.149109 291.310822,662.551819 304.995575,674.539612 
	C315.828918,684.029541 326.396027,693.823303 337.080505,703.483154 
	C357.610168,722.043762 380.034363,738.510376 398.242188,759.641174 
	C410.996338,774.442871 421.039276,789.651245 418.251282,810.886230 
	C415.788239,829.645996 409.570923,845.772400 394.587097,857.887695 
	C379.890869,869.770569 359.489838,871.550598 343.836945,861.859863 
	C333.463501,855.437561 326.536316,846.008423 322.011017,834.744385 
	C316.013367,819.815491 314.519653,804.198120 315.063080,788.316956 
	C315.205872,784.144226 313.752808,782.915894 309.644348,782.928772 
	C269.813507,783.053772 229.982010,783.043762 190.151047,782.941345 
	C186.325470,782.931519 184.691254,784.010071 184.959885,788.033630 
	C185.787933,800.436951 185.720352,812.940857 187.269455,825.245972 
	C189.841263,845.674866 194.737198,865.613159 203.028046,884.597717 
	C213.967056,909.646118 230.055313,930.565918 252.572113,946.262085 
	C278.654907,964.443909 308.310822,972.515686 339.454590,974.756470 
	C363.174652,976.463257 386.889313,974.700989 410.232452,969.201172 
	C428.537811,964.888428 446.511108,959.478027 463.101410,950.719543 
	C475.776611,944.027954 488.123566,936.346375 499.484009,927.629211 
	C512.624512,917.546082 521.812561,903.911804 529.114624,888.908569 
	C540.697021,865.110596 545.972534,839.849548 547.960205,813.729980 
	C548.576416,805.632507 548.870239,797.499390 548.985779,789.377930 
	C549.114929,780.298157 549.868652,771.071594 548.601013,762.157715 
	C545.241760,738.535278 536.068542,717.057007 522.830688,697.174316 
	C511.374939,679.968201 498.225403,664.155701 483.790100,649.501831 
	C468.173950,633.649231 451.802856,618.536377 435.645172,603.223145 
	C428.074371,596.047974 420.240906,589.149536 412.509552,582.144348 
	C398.893677,569.807434 385.139160,557.619812 371.688660,545.105347 
	C363.640625,537.617432 356.437592,529.195740 348.178741,521.966003 
	C336.379974,511.637390 328.475647,499.257690 325.454224,483.893372 
	C321.797455,465.298370 323.715912,448.042328 338.804077,434.559631 
	C357.356415,417.981445 382.989807,417.383087 400.999207,435.793732 
	C415.327789,450.441498 418.219757,469.766876 418.649170,489.317993 
	C418.795135,495.963776 417.982605,495.996399 424.887451,495.997345 
	C463.552094,496.002502 502.216705,496.000092 540.881348,495.999817 
	C549.304993,495.999756 549.298096,495.999084 549.019958,487.571991 
	C548.970520,486.073578 549.127563,484.560211 548.980469,483.074432 
	C547.903564,472.198730 547.502502,461.191681 545.497009,450.486725 
	C542.107239,432.392181 536.925110,414.866241 528.636536,398.147247 
	C517.166992,375.011627 500.493652,356.795746 478.987427,343.237671 
	C467.012482,335.688385 453.707977,330.248108 440.997040,322.942688 
	C440.997040,272.412598 440.997040,221.882492 440.997040,171.319702 
	C392.955933,171.319702 345.750000,171.319702 298.001343,171.319702 
	C298.001343,222.372910 298.001343,273.108185 297.384308,324.255493 
M1389.936401,1672.040405 
	C1389.957520,1632.713013 1389.981812,1593.385620 1389.997314,1554.058228 
	C1390.000000,1547.040771 1389.983276,1547.026978 1382.853638,1547.026367 
	C1327.028198,1547.021851 1271.202637,1546.963379 1215.377563,1547.125610 
	C1210.397095,1547.140137 1208.857788,1545.848877 1208.884033,1540.722778 
	C1209.089722,1500.729614 1208.994629,1460.734741 1209.000488,1420.740479 
	C1209.001465,1414.016479 1209.019775,1414.001465 1215.923828,1414.000732 
	C1262.083984,1413.995728 1308.244141,1414.000854 1354.404297,1413.993286 
	C1360.972290,1413.992310 1360.994751,1413.969238 1360.995972,1407.424072 
	C1361.003540,1367.596436 1361.002441,1327.768677 1360.997437,1287.941040 
	C1360.996582,1281.015747 1360.981567,1281.003540 1353.773560,1281.002808 
	C1307.613403,1280.998535 1261.453003,1280.919922 1215.293701,1281.112671 
	C1210.174194,1281.134033 1208.863281,1279.617188 1208.891357,1274.627319 
	C1209.090942,1239.133423 1208.995239,1203.638062 1208.999390,1168.143066 
	C1209.000244,1161.017090 1209.011963,1161.002808 1216.022095,1161.002319 
	C1271.680908,1160.998169 1327.339722,1161.001831 1382.998535,1160.997314 
	C1389.985718,1160.996704 1389.997314,1160.981323 1389.998169,1153.833618 
	C1390.002441,1118.671997 1390.001953,1083.510254 1389.998535,1048.348633 
	C1389.997803,1041.011597 1389.988770,1041.001709 1382.682861,1041.001465 
	C1301.194336,1040.999146 1219.705933,1041.000000 1138.217407,1041.000000 
	C1117.720337,1041.000000 1097.223267,1040.994507 1076.726196,1041.003296 
	C1070.033936,1041.006226 1070.033447,1041.023315 1070.002319,1047.444580 
	C1069.998291,1048.277832 1070.000854,1049.110962 1070.000854,1049.944214 
	C1070.000854,1255.248535 1070.000488,1460.552734 1070.005859,1665.857056 
	C1070.005859,1668.188965 1070.080566,1670.520874 1070.650391,1673.502197 
	C1072.459961,1673.667969 1074.269409,1673.978149 1076.078979,1673.978516 
	C1178.761108,1674.001587 1281.443237,1674.004883 1384.125366,1673.956299 
	C1386.030762,1673.955444 1387.935913,1673.312866 1389.936401,1672.040405 
M441.719574,1672.986450 
	C448.127747,1670.295776 454.699738,1667.934814 460.911438,1664.848755 
	C475.830597,1657.436768 489.486298,1648.114014 502.347900,1637.467896 
	C519.783447,1623.035767 532.661194,1605.543945 540.328003,1584.249023 
	C547.148010,1565.305786 549.341980,1545.521118 549.863098,1525.619995 
	C550.438599,1503.639404 549.894531,1481.631348 550.080017,1459.637329 
	C550.116394,1455.325317 548.928650,1453.895142 544.463928,1453.911011 
	C501.806274,1454.063232 459.147644,1454.065796 416.490051,1453.908447 
	C411.964417,1453.891724 410.937317,1455.438599 410.910828,1459.677490 
	C410.789185,1479.137695 410.439453,1498.598022 409.981567,1518.053833 
	C409.566254,1535.699707 403.373108,1550.751099 389.412140,1562.130737 
	C377.321045,1571.986206 363.523163,1576.316528 348.663330,1571.012573 
	C327.500458,1563.458740 316.134094,1545.942261 316.094116,1523.907227 
	C315.892792,1412.929688 315.919281,1301.951416 316.190765,1190.974243 
	C316.208557,1183.695801 317.720245,1175.887207 320.649719,1169.259155 
	C327.007019,1154.875610 339.453156,1147.514648 354.476685,1144.357422 
	C370.835876,1140.919678 393.299957,1151.500244 400.069946,1166.737793 
	C402.946503,1173.212280 404.538971,1180.712402 404.782928,1187.812866 
	C405.423340,1206.453857 405.042511,1225.131470 404.965332,1243.794189 
	C404.951874,1247.045410 405.332062,1249.070068 409.460724,1249.059814 
	C454.784729,1248.949219 500.109192,1248.963623 545.433289,1249.045166 
	C548.917603,1249.051514 550.055664,1247.830933 550.042053,1244.394165 
	C549.949524,1221.000610 550.021423,1197.637695 547.161743,1174.322388 
	C545.109802,1157.592529 541.147522,1141.529663 535.325256,1125.731201 
	C522.143005,1089.961548 497.109741,1065.295776 463.934937,1048.053467 
	C438.780273,1034.979614 411.605347,1028.792725 383.636627,1027.266724 
	C354.270111,1025.664673 324.902496,1026.969727 296.049042,1033.956299 
	C269.407471,1040.407349 245.136017,1051.441772 226.131561,1071.615112 
	C211.688919,1086.946045 201.053879,1105.014404 193.348511,1124.631592 
	C184.053711,1148.295410 179.054672,1172.904053 179.032242,1198.368042 
	C178.950485,1291.182861 178.906326,1383.998047 179.088226,1476.812500 
	C179.120087,1493.068970 180.044846,1509.339233 181.028854,1525.574585 
	C182.327271,1546.996826 186.966873,1567.767090 193.974014,1588.064941 
	C205.834213,1622.420776 227.042343,1648.850830 260.004028,1664.718872 
	C272.164642,1670.573120 285.359619,1674.279053 298.041321,1679.907837 
	C298.028473,1728.235229 298.011414,1776.562622 298.006866,1824.890015 
	C298.006134,1832.862549 298.137573,1832.993042 306.122223,1832.994751 
	C348.283783,1833.003540 390.445374,1833.002686 432.606934,1832.995728 
	C440.919312,1832.994385 440.990265,1832.923706 440.990906,1824.648926 
	C440.994659,1774.155029 440.989075,1723.661133 441.719574,1672.986450 
M879.601807,1673.519409 
	C880.581055,1673.672119 881.560242,1673.957520 882.539673,1673.958252 
	C919.280640,1673.985718 956.021667,1673.999390 992.762573,1673.943848 
	C994.135437,1673.941772 995.507324,1673.232300 996.950745,1671.936646 
	C996.966797,1668.936646 996.920044,1665.934814 997.012634,1662.937134 
	C997.180237,1657.513672 998.137573,1651.755371 990.350769,1650.550903 
	C989.516846,1650.421875 988.839478,1649.304932 988.081726,1648.655273 
	C981.718750,1643.200073 978.032837,1636.061279 977.160889,1627.978271 
	C975.403748,1611.689575 973.963806,1595.344116 973.123413,1578.984619 
	C972.041382,1557.920166 971.676819,1536.818848 971.002075,1515.733398 
	C970.342957,1495.136841 969.637207,1474.541626 969.037903,1453.943237 
	C968.617004,1439.479370 968.426086,1425.008667 967.971802,1410.546021 
	C967.614807,1399.178223 965.187439,1388.243896 960.424805,1377.866821 
	C951.351990,1358.098633 934.868652,1346.645630 915.784790,1338.154907 
	C912.141663,1336.534058 908.335938,1335.278809 905.303589,1334.121460 
	C913.524719,1327.929321 922.218140,1322.315796 929.809204,1315.478394 
	C948.449280,1298.689209 958.683777,1276.849243 964.936951,1253.020508 
	C972.524719,1224.106201 976.049927,1194.729004 972.949036,1164.847534 
	C971.687073,1152.687012 970.373291,1140.445923 967.763916,1128.530273 
	C963.386169,1108.539185 954.321106,1090.589844 939.513184,1076.244873 
	C922.935181,1060.185059 902.306030,1051.740234 880.013977,1046.981689 
	C857.833679,1042.247070 835.313293,1041.113403 812.740173,1041.045044 
	C764.242188,1040.898193 715.743530,1040.999878 667.245117,1041.000000 
	C655.412170,1041.000000 643.573853,1041.207886 631.749023,1040.899292 
	C627.016357,1040.775757 625.401550,1042.483398 625.983582,1046.926514 
	C626.112366,1047.909668 626.000916,1048.923950 626.000916,1049.923950 
	C626.000854,1255.250488 626.000427,1460.576904 626.005737,1665.903442 
	C626.005798,1668.235596 626.080505,1670.567749 626.674011,1673.520508 
	C627.987671,1673.678589 629.301208,1673.973999 630.614929,1673.974854 
	C671.778320,1673.999634 712.941711,1674.007935 754.105042,1673.949829 
	C755.671570,1673.947632 757.237183,1673.262329 758.920044,1671.977661 
	C758.946472,1669.313232 758.995850,1666.648804 758.995972,1663.984375 
	C759.000122,1581.872314 758.999207,1499.760254 759.000488,1417.648193 
	C759.000488,1415.982788 758.566772,1414.132935 759.151917,1412.703491 
	C759.741516,1411.262695 761.357605,1409.186035 762.512268,1409.193481 
	C776.297668,1409.281738 790.149048,1408.982422 803.843506,1410.270264 
	C815.055176,1411.324585 824.682800,1416.550781 830.516174,1427.015991 
	C836.308594,1437.407715 838.773926,1448.836182 838.856262,1460.433716 
	C839.197754,1508.565918 838.847839,1556.702759 839.092896,1604.836182 
	C839.166199,1619.246582 839.647644,1633.728149 841.216187,1648.037476 
	C842.832642,1662.783447 847.952637,1669.843018 863.045410,1671.976685 
	C868.277039,1672.716187 873.614807,1672.705566 879.601807,1673.519409 
M1649.925415,1672.945312 
	C1664.510498,1672.226929 1679.197510,1672.338623 1693.652954,1670.564697 
	C1709.207275,1668.656128 1724.399658,1664.735840 1739.235107,1659.143921 
	C1759.716187,1651.423828 1776.738892,1639.367676 1790.106323,1622.216431 
	C1811.200073,1595.152100 1820.677246,1563.762451 1820.817383,1530.018188 
	C1821.294678,1415.032593 1821.017944,1300.043823 1820.958862,1185.056274 
	C1820.955078,1177.592163 1820.453491,1170.123047 1820.022339,1162.665527 
	C1819.051025,1145.864258 1815.708252,1129.544434 1810.058228,1113.674927 
	C1801.534546,1089.734131 1785.931030,1071.997803 1762.379517,1062.607788 
	C1747.831787,1056.807617 1732.498535,1052.613159 1717.186401,1049.173950 
	C1688.929321,1042.827148 1659.970947,1041.646240 1631.176392,1041.245361 
	C1576.692871,1040.486816 1522.191284,1041.032837 1467.697388,1040.960205 
	C1464.369263,1040.955688 1462.614502,1041.880127 1462.988770,1045.476196 
	C1463.125977,1046.794678 1463.000977,1048.140259 1463.000977,1049.473389 
	C1463.000488,1254.951172 1462.999878,1460.428955 1463.008789,1665.906738 
	C1463.008911,1668.236816 1463.131714,1670.566895 1463.788574,1673.459106 
	C1465.425537,1673.639038 1467.062500,1673.975342 1468.699585,1673.976074 
	C1526.882690,1674.003052 1585.065796,1674.008179 1643.248901,1673.956909 
	C1645.162109,1673.955200 1647.074951,1673.334717 1649.925415,1672.945312 
M1572.469604,968.046753 
	C1587.044678,970.031067 1601.579956,973.205200 1616.205078,973.696594 
	C1634.239136,974.302490 1652.397583,973.278442 1670.407593,971.802734 
	C1682.526489,970.809631 1694.619995,968.394104 1706.473511,965.562561 
	C1720.361694,962.244812 1733.514648,956.780029 1745.979614,949.578735 
	C1759.929810,941.519409 1772.226562,931.604004 1782.229492,919.026978 
	C1795.429932,902.429565 1805.341309,884.093323 1812.558716,864.013977 
	C1821.588501,838.892639 1826.546631,812.958496 1826.731812,786.614929 
	C1827.408081,690.473816 1826.858276,594.324707 1827.093384,498.179382 
	C1827.156860,472.198273 1825.672363,446.591675 1818.090454,421.509094 
	C1812.468140,402.908875 1804.093140,385.831268 1790.325317,372.198181 
	C1781.215576,363.177551 1770.869263,355.154999 1760.183960,348.022858 
	C1727.453979,326.176514 1690.936035,315.909088 1651.760864,315.093414 
	C1639.313232,314.834259 1626.801636,315.145142 1614.395386,316.142181 
	C1603.223633,317.039917 1592.014526,318.590179 1581.072998,320.995087 
	C1560.453003,325.527222 1540.593994,332.530701 1522.407471,343.431793 
	C1513.340454,348.866608 1504.302734,354.650848 1496.303467,361.504364 
	C1479.268677,376.098907 1468.223999,394.897156 1460.895996,415.994202 
	C1452.393677,440.471344 1450.315430,465.968170 1450.163940,491.494812 
	C1449.713257,567.475708 1449.834473,643.461548 1450.092773,719.444275 
	C1450.183105,746.034851 1450.528198,772.674438 1452.283325,799.190552 
	C1453.314453,814.767151 1456.629395,830.314209 1460.215332,845.569336 
	C1464.707886,864.682190 1472.780151,882.561218 1481.957764,899.923279 
	C1492.464844,919.800049 1506.052490,936.851074 1525.378906,948.907715 
	C1539.742065,957.867981 1555.286743,963.867676 1572.469604,968.046753 
M915.464783,931.984070 
	C933.943359,913.484131 947.162842,891.815613 956.387268,867.305420 
	C966.386169,840.737610 971.631592,813.255859 971.785889,785.182373 
	C972.333801,685.528809 972.170898,585.869812 971.819580,486.214478 
	C971.765564,470.879913 970.411743,455.357819 967.730957,440.264893 
	C962.258362,409.453674 949.627502,382.180756 924.488220,361.936066 
	C906.136719,347.157593 886.029541,335.544647 864.043213,327.142700 
	C843.520752,319.300171 822.022949,316.176483 800.294678,315.182617 
	C777.561890,314.142853 754.708435,314.346649 732.457031,319.879425 
	C717.749634,323.536377 703.202026,328.068359 688.925781,333.168427 
	C670.981384,339.578857 654.811829,349.571045 640.595764,362.148041 
	C623.211121,377.528198 612.074707,397.122559 604.943848,419.176819 
	C597.077759,443.505005 595.204956,468.680969 595.179077,493.856689 
	C595.079834,590.467041 595.497620,687.079346 596.189636,783.687561 
	C596.289917,797.680237 598.114380,811.801636 600.582397,825.605713 
	C605.075500,850.736145 613.097046,874.895813 625.784241,897.128906 
	C632.474121,908.852417 639.849854,920.459595 648.623718,930.648743 
	C659.406921,943.171265 673.472595,951.724670 688.802551,958.430054 
	C711.009521,968.143494 734.313599,972.785645 758.178284,973.745239 
	C780.035339,974.624146 801.948425,974.599548 823.823059,971.250610 
	C843.846252,968.185181 863.406250,963.772095 881.321716,954.514282 
	C893.165039,948.394287 903.783691,939.904358 915.464783,931.984070 
M1372.517944,674.143555 
	C1362.706055,646.395508 1340.671265,632.169556 1313.645874,622.353821 
	C1315.865356,620.906311 1317.121094,620.188049 1318.266846,619.323730 
	C1326.311768,613.254822 1335.026611,607.868713 1342.202271,600.900024 
	C1353.100952,590.315918 1361.003052,577.319275 1366.639282,563.197876 
	C1377.568481,535.813965 1382.009277,507.096008 1382.912231,477.790436 
	C1383.157104,469.844696 1382.673828,461.834503 1381.925171,453.910522 
	C1380.914551,443.212158 1379.891602,432.459015 1377.858643,421.925323 
	C1374.128906,402.599915 1365.905518,385.083466 1353.210449,370.047546 
	C1340.089966,354.507751 1322.435913,345.563416 1303.483276,339.477814 
	C1282.220337,332.650421 1260.083618,330.209869 1237.858765,330.106598 
	C1173.197266,329.806030 1108.533447,329.985321 1043.870605,330.015076 
	C1033.979492,330.019653 1035.015137,328.945740 1035.014282,338.796753 
	C1034.995361,543.618042 1035.000000,748.439331 1035.000488,953.260620 
	C1035.000488,954.593872 1035.132202,955.941650 1034.982300,957.257629 
	C1034.547852,961.072083 1036.336670,962.061462 1039.928955,962.053406 
	C1080.926270,961.961426 1121.924194,961.952209 1162.921387,962.065247 
	C1166.845703,962.076050 1168.141357,960.823730 1168.068115,956.909485 
	C1167.862427,945.914001 1167.999512,934.912109 1167.999634,923.912781 
	C1168.000488,850.417114 1168.044067,776.921387 1167.904053,703.425964 
	C1167.894653,698.528137 1169.009399,696.600647 1174.248169,696.900452 
	C1185.860962,697.565186 1197.566406,697.054993 1209.120483,698.184937 
	C1223.576294,699.598633 1235.541382,705.484741 1241.615601,720.043518 
	C1245.972290,730.485474 1247.846436,741.406677 1247.902222,752.508423 
	C1248.134521,798.671204 1247.834839,844.836792 1248.094604,890.999268 
	C1248.181396,906.415527 1248.904419,921.863525 1250.196899,937.224609 
	C1250.994873,946.707642 1254.200317,955.786560 1264.729980,958.880432 
	C1270.553711,960.591492 1276.752930,961.813965 1282.794312,961.864380 
	C1316.456665,962.145081 1350.122559,962.000366 1383.787231,961.999451 
	C1389.786865,961.999268 1395.787842,961.912659 1401.785522,962.019958 
	C1404.655884,962.071350 1406.126465,961.176331 1406.019897,958.042236 
	C1405.866943,953.547668 1406.113647,949.037170 1405.880737,944.549561 
	C1405.818970,943.361877 1404.877075,941.533875 1403.911377,941.184875 
	C1393.934326,937.579773 1388.416504,929.843567 1387.081543,920.117432 
	C1384.697754,902.750427 1383.439941,885.217957 1382.074341,867.726379 
	C1381.337891,858.292358 1381.339600,848.800049 1381.032349,839.333313 
	C1380.347778,818.247253 1379.676392,797.160828 1379.002930,776.074463 
	C1378.339966,755.311890 1377.415405,734.553040 1377.116943,713.785156 
	C1376.927979,700.640869 1376.784302,687.579956 1372.517944,674.143555 
z"/>
<path fill="#B29229" opacity="1.000000" stroke="none" 
	d="
M1572.056030,967.993042 
	C1555.286743,963.867676 1539.742065,957.867981 1525.378906,948.907715 
	C1506.052490,936.851074 1492.464844,919.800049 1481.957764,899.923279 
	C1472.780151,882.561218 1464.707886,864.682190 1460.215332,845.569336 
	C1456.629395,830.314209 1453.314453,814.767151 1452.283325,799.190552 
	C1450.528198,772.674438 1450.183105,746.034851 1450.092773,719.444275 
	C1449.834473,643.461548 1449.713257,567.475708 1450.163940,491.494812 
	C1450.315430,465.968170 1452.393677,440.471344 1460.895996,415.994202 
	C1468.223999,394.897156 1479.268677,376.098907 1496.303467,361.504364 
	C1504.302734,354.650848 1513.340454,348.866608 1522.407471,343.431793 
	C1540.593994,332.530701 1560.453003,325.527222 1581.072998,320.995087 
	C1592.014526,318.590179 1603.223633,317.039917 1614.395386,316.142181 
	C1626.801636,315.145142 1639.313232,314.834259 1651.760864,315.093414 
	C1690.936035,315.909088 1727.453979,326.176514 1760.183960,348.022858 
	C1770.869263,355.154999 1781.215576,363.177551 1790.325317,372.198181 
	C1804.093140,385.831268 1812.468140,402.908875 1818.090454,421.509094 
	C1825.672363,446.591675 1827.156860,472.198273 1827.093384,498.179382 
	C1826.858276,594.324707 1827.408081,690.473816 1826.731812,786.614929 
	C1826.546631,812.958496 1821.588501,838.892639 1812.558716,864.013977 
	C1805.341309,884.093323 1795.429932,902.429565 1782.229492,919.026978 
	C1772.226562,931.604004 1759.929810,941.519409 1745.979614,949.578735 
	C1733.514648,956.780029 1720.361694,962.244812 1706.473511,965.562561 
	C1694.619995,968.394104 1682.526489,970.809631 1670.407593,971.802734 
	C1652.397583,973.278442 1634.239136,974.302490 1616.205078,973.696594 
	C1601.579956,973.205200 1587.044678,970.031067 1572.056030,967.993042 
M1686.000122,624.500000 
	C1685.999878,576.011536 1686.176880,527.521973 1685.888916,479.035156 
	C1685.804810,464.868866 1681.803955,451.833038 1670.538208,441.995758 
	C1658.358154,431.359863 1644.243652,425.721710 1628.389160,429.589325 
	C1603.090088,435.760986 1590.153198,452.816498 1590.098389,478.602753 
	C1589.866455,587.909729 1589.917114,697.217590 1590.090088,806.524841 
	C1590.115967,822.851318 1595.586670,837.029114 1609.540161,847.057190 
	C1631.902832,863.128723 1657.651367,858.992554 1675.604004,837.965149 
	C1684.168579,827.933594 1685.992554,815.647888 1685.994995,802.958008 
	C1686.006470,743.805359 1686.000122,684.652649 1686.000122,624.500000 
z"/>
<path fill="#B29229" opacity="1.000000" stroke="none" 
	d="
M915.207764,932.229736 
	C903.783691,939.904358 893.165039,948.394287 881.321716,954.514282 
	C863.406250,963.772095 843.846252,968.185181 823.823059,971.250610 
	C801.948425,974.599548 780.035339,974.624146 758.178284,973.745239 
	C734.313599,972.785645 711.009521,968.143494 688.802551,958.430054 
	C673.472595,951.724670 659.406921,943.171265 648.623718,930.648743 
	C639.849854,920.459595 632.474121,908.852417 625.784241,897.128906 
	C613.097046,874.895813 605.075500,850.736145 600.582397,825.605713 
	C598.114380,811.801636 596.289917,797.680237 596.189636,783.687561 
	C595.497620,687.079346 595.079834,590.467041 595.179077,493.856689 
	C595.204956,468.680969 597.077759,443.505005 604.943848,419.176819 
	C612.074707,397.122559 623.211121,377.528198 640.595764,362.148041 
	C654.811829,349.571045 670.981384,339.578857 688.925781,333.168427 
	C703.202026,328.068359 717.749634,323.536377 732.457031,319.879425 
	C754.708435,314.346649 777.561890,314.142853 800.294678,315.182617 
	C822.022949,316.176483 843.520752,319.300171 864.043213,327.142700 
	C886.029541,335.544647 906.136719,347.157593 924.488220,361.936066 
	C949.627502,382.180756 962.258362,409.453674 967.730957,440.264893 
	C970.411743,455.357819 971.765564,470.879913 971.819580,486.214478 
	C972.170898,585.869812 972.333801,685.528809 971.785889,785.182373 
	C971.631592,813.255859 966.386169,840.737610 956.387268,867.305420 
	C947.162842,891.815613 933.943359,913.484131 915.207764,932.229736 
M735.000061,565.500000 
	C735.000000,645.299561 734.962708,725.099121 735.030273,804.898621 
	C735.044434,821.615784 740.035583,836.241089 754.115967,846.590088 
	C766.389465,855.610962 779.971313,859.850403 794.821228,855.026855 
	C819.558044,846.991882 830.809509,830.810120 830.872986,806.667969 
	C831.161804,696.881836 831.071655,587.094360 830.820007,477.308075 
	C830.804871,470.721313 828.961853,463.860077 826.656616,457.610840 
	C820.446289,440.775970 798.439941,426.978088 779.758911,428.833923 
	C763.949585,430.404541 751.881592,437.436127 742.874878,450.225037 
	C737.106628,458.415527 735.211304,467.898438 735.110474,477.537933 
	C734.807190,506.522522 735.000488,535.512268 735.000061,565.500000 
z"/>
<path fill="#B29229" opacity="1.000000" stroke="none" 
	d="
M1463.197388,1672.896973 
	C1463.131714,1670.566895 1463.008911,1668.236816 1463.008789,1665.906738 
	C1462.999878,1460.428955 1463.000488,1254.951172 1463.000977,1049.473389 
	C1463.000977,1048.140259 1463.125977,1046.794678 1462.988770,1045.476196 
	C1462.614502,1041.880127 1464.369263,1040.955688 1467.697388,1040.960205 
	C1522.191284,1041.032837 1576.692871,1040.486816 1631.176392,1041.245361 
	C1659.970947,1041.646240 1688.929321,1042.827148 1717.186401,1049.173950 
	C1732.498535,1052.613159 1747.831787,1056.807617 1762.379517,1062.607788 
	C1785.931030,1071.997803 1801.534546,1089.734131 1810.058228,1113.674927 
	C1815.708252,1129.544434 1819.051025,1145.864258 1820.022339,1162.665527 
	C1820.453491,1170.123047 1820.955078,1177.592163 1820.958862,1185.056274 
	C1821.017944,1300.043823 1821.294678,1415.032593 1820.817383,1530.018188 
	C1820.677246,1563.762451 1811.200073,1595.152100 1790.106323,1622.216431 
	C1776.738892,1639.367676 1759.716187,1651.423828 1739.235107,1659.143921 
	C1724.399658,1664.735840 1709.207275,1668.656128 1693.652954,1670.564697 
	C1679.197510,1672.338623 1664.510498,1672.226929 1648.989014,1672.973145 
	C1586.434326,1672.966431 1524.815796,1672.931763 1463.197388,1672.896973 
M1668.973511,1158.489990 
	C1666.020508,1156.648438 1663.167847,1154.616577 1660.097778,1152.996826 
	C1643.667725,1144.328613 1626.003540,1141.485596 1607.617798,1141.968506 
	C1600.012695,1142.168335 1600.000977,1142.009888 1600.000854,1149.549438 
	C1599.999268,1273.215454 1599.999756,1396.881348 1599.999756,1520.547363 
	C1599.999756,1536.547241 1600.164551,1552.549927 1599.900269,1568.545532 
	C1599.820068,1573.398193 1600.929443,1575.252075 1606.217529,1575.129150 
	C1620.416138,1574.798950 1634.247925,1572.486694 1647.910156,1568.859009 
	C1664.796753,1564.375122 1676.156860,1554.069946 1679.456787,1536.649658 
	C1681.452637,1526.113281 1682.820312,1515.281128 1682.850830,1504.577271 
	C1683.111206,1413.411865 1683.042969,1322.245361 1682.954468,1231.079224 
	C1682.940918,1217.115234 1682.848877,1203.112427 1681.814819,1189.200317 
	C1680.984863,1178.037109 1677.805664,1167.342651 1668.973511,1158.489990 
z"/>
<path fill="#B29229" opacity="1.000000" stroke="none" 
	d="
M626.120361,1672.899902 
	C626.080505,1670.567749 626.005798,1668.235596 626.005737,1665.903442 
	C626.000427,1460.576904 626.000854,1255.250488 626.000916,1049.923950 
	C626.000916,1048.923950 626.112366,1047.909668 625.983582,1046.926514 
	C625.401550,1042.483398 627.016357,1040.775757 631.749023,1040.899292 
	C643.573853,1041.207886 655.412170,1041.000000 667.245117,1041.000000 
	C715.743530,1040.999878 764.242188,1040.898193 812.740173,1041.045044 
	C835.313293,1041.113403 857.833679,1042.247070 880.013977,1046.981689 
	C902.306030,1051.740234 922.935181,1060.185059 939.513184,1076.244873 
	C954.321106,1090.589844 963.386169,1108.539185 967.763916,1128.530273 
	C970.373291,1140.445923 971.687073,1152.687012 972.949036,1164.847534 
	C976.049927,1194.729004 972.524719,1224.106201 964.936951,1253.020508 
	C958.683777,1276.849243 948.449280,1298.689209 929.809204,1315.478394 
	C922.218140,1322.315796 913.524719,1327.929321 905.303589,1334.121460 
	C908.335938,1335.278809 912.141663,1336.534058 915.784790,1338.154907 
	C934.868652,1346.645630 951.351990,1358.098633 960.424805,1377.866821 
	C965.187439,1388.243896 967.614807,1399.178223 967.971802,1410.546021 
	C968.426086,1425.008667 968.617004,1439.479370 969.037903,1453.943237 
	C969.637207,1474.541626 970.342957,1495.136841 971.002075,1515.733398 
	C971.676819,1536.818848 972.041382,1557.920166 973.123413,1578.984619 
	C973.963806,1595.344116 975.403748,1611.689575 977.160889,1627.978271 
	C978.032837,1636.061279 981.718750,1643.200073 988.081726,1648.655273 
	C988.839478,1649.304932 989.516846,1650.421875 990.350769,1650.550903 
	C998.137573,1651.755371 997.180237,1657.513672 997.012634,1662.937134 
	C996.920044,1665.934814 996.966797,1668.936646 996.455688,1672.426636 
	C956.941711,1672.957031 917.922913,1672.997437 878.904053,1673.037842 
	C873.614807,1672.705566 868.277039,1672.716187 863.045410,1671.976685 
	C847.952637,1669.843018 842.832642,1662.783447 841.216187,1648.037476 
	C839.647644,1633.728149 839.166199,1619.246582 839.092896,1604.836182 
	C838.847839,1556.702759 839.197754,1508.565918 838.856262,1460.433716 
	C838.773926,1448.836182 836.308594,1437.407715 830.516174,1427.015991 
	C824.682800,1416.550781 815.055176,1411.324585 803.843506,1410.270264 
	C790.149048,1408.982422 776.297668,1409.281738 762.512268,1409.193481 
	C761.357605,1409.186035 759.741516,1411.262695 759.151917,1412.703491 
	C758.566772,1414.132935 759.000488,1415.982788 759.000488,1417.648193 
	C758.999207,1499.760254 759.000122,1581.872314 758.995972,1663.984375 
	C758.995850,1666.648804 758.946472,1669.313232 758.407410,1672.457520 
	C713.969971,1672.925049 670.045166,1672.912476 626.120361,1672.899902 
M838.976807,1248.170044 
	C838.984558,1240.672485 838.972961,1233.174805 839.004089,1225.677368 
	C839.066711,1210.573364 839.509338,1195.497314 835.041748,1180.726074 
	C829.137512,1161.205200 818.167847,1146.930176 797.127319,1142.939575 
	C786.258179,1140.878052 775.230835,1139.652832 764.278503,1138.026367 
	C760.043518,1137.397339 758.908813,1139.306274 758.929077,1143.368530 
	C759.067810,1171.192261 758.999878,1199.017090 758.999573,1226.841553 
	C758.999268,1249.667603 759.091125,1272.494385 758.919678,1295.319092 
	C758.887756,1299.562012 759.938171,1301.341919 764.489868,1301.086426 
	C770.801208,1300.732056 777.163696,1300.705200 783.475830,1301.053467 
	C805.206116,1302.252441 819.007324,1289.956665 830.661804,1273.808472 
	C835.993530,1266.421143 837.855957,1257.896606 838.976807,1248.170044 
z"/>
<path fill="#B29229" opacity="1.000000" stroke="none" 
	d="
M1372.655029,674.520752 
	C1376.784302,687.579956 1376.927979,700.640869 1377.116943,713.785156 
	C1377.415405,734.553040 1378.339966,755.311890 1379.002930,776.074463 
	C1379.676392,797.160828 1380.347778,818.247253 1381.032349,839.333313 
	C1381.339600,848.800049 1381.337891,858.292358 1382.074341,867.726379 
	C1383.439941,885.217957 1384.697754,902.750427 1387.081543,920.117432 
	C1388.416504,929.843567 1393.934326,937.579773 1403.911377,941.184875 
	C1404.877075,941.533875 1405.818970,943.361877 1405.880737,944.549561 
	C1406.113647,949.037170 1405.866943,953.547668 1406.019897,958.042236 
	C1406.126465,961.176331 1404.655884,962.071350 1401.785522,962.019958 
	C1395.787842,961.912659 1389.786865,961.999268 1383.787231,961.999451 
	C1350.122559,962.000366 1316.456665,962.145081 1282.794312,961.864380 
	C1276.752930,961.813965 1270.553711,960.591492 1264.729980,958.880432 
	C1254.200317,955.786560 1250.994873,946.707642 1250.196899,937.224609 
	C1248.904419,921.863525 1248.181396,906.415527 1248.094604,890.999268 
	C1247.834839,844.836792 1248.134521,798.671204 1247.902222,752.508423 
	C1247.846436,741.406677 1245.972290,730.485474 1241.615601,720.043518 
	C1235.541382,705.484741 1223.576294,699.598633 1209.120483,698.184937 
	C1197.566406,697.054993 1185.860962,697.565186 1174.248169,696.900452 
	C1169.009399,696.600647 1167.894653,698.528137 1167.904053,703.425964 
	C1168.044067,776.921387 1168.000488,850.417114 1167.999634,923.912781 
	C1167.999512,934.912109 1167.862427,945.914001 1168.068115,956.909485 
	C1168.141357,960.823730 1166.845703,962.076050 1162.921387,962.065247 
	C1121.924194,961.952209 1080.926270,961.961426 1039.928955,962.053406 
	C1036.336670,962.061462 1034.547852,961.072083 1034.982300,957.257629 
	C1035.132202,955.941650 1035.000488,954.593872 1035.000488,953.260620 
	C1035.000000,748.439331 1034.995361,543.618042 1035.014282,338.796753 
	C1035.015137,328.945740 1033.979492,330.019653 1043.870605,330.015076 
	C1108.533447,329.985321 1173.197266,329.806030 1237.858765,330.106598 
	C1260.083618,330.209869 1282.220337,332.650421 1303.483276,339.477814 
	C1322.435913,345.563416 1340.089966,354.507751 1353.210449,370.047546 
	C1365.905518,385.083466 1374.128906,402.599915 1377.858643,421.925323 
	C1379.891602,432.459015 1380.914551,443.212158 1381.925171,453.910522 
	C1382.673828,461.834503 1383.157104,469.844696 1382.912231,477.790436 
	C1382.009277,507.096008 1377.568481,535.813965 1366.639282,563.197876 
	C1361.003052,577.319275 1353.100952,590.315918 1342.202271,600.900024 
	C1335.026611,607.868713 1326.311768,613.254822 1318.266846,619.323730 
	C1317.121094,620.188049 1315.865356,620.906311 1313.645874,622.353821 
	C1340.671265,632.169556 1362.706055,646.395508 1372.655029,674.520752 
M1205.933594,588.840027 
	C1218.398071,585.490295 1227.403198,577.178162 1235.484131,567.774658 
	C1242.079712,560.099487 1246.740845,551.366272 1247.063110,540.926270 
	C1247.452393,528.311279 1247.633057,515.689880 1248.019775,503.074829 
	C1248.367920,491.717499 1247.235840,480.544708 1243.937134,469.664032 
	C1239.532959,455.136261 1232.965332,442.010956 1218.063232,435.601379 
	C1203.557495,429.362244 1188.153687,427.277832 1172.446289,426.955353 
	C1168.823608,426.880981 1167.957764,428.417847 1167.961914,431.715302 
	C1168.026611,482.836151 1168.049072,533.957214 1167.926514,585.077881 
	C1167.916626,589.227417 1169.553345,590.198608 1173.240967,590.036133 
	C1183.852783,589.568787 1194.473022,589.290405 1205.933594,588.840027 
z"/>
<path fill="#B29229" opacity="1.000000" stroke="none" 
	d="
M298.082825,1678.964844 
	C285.359619,1674.279053 272.164642,1670.573120 260.004028,1664.718872 
	C227.042343,1648.850830 205.834213,1622.420776 193.974014,1588.064941 
	C186.966873,1567.767090 182.327271,1546.996826 181.028854,1525.574585 
	C180.044846,1509.339233 179.120087,1493.068970 179.088226,1476.812500 
	C178.906326,1383.998047 178.950485,1291.182861 179.032242,1198.368042 
	C179.054672,1172.904053 184.053711,1148.295410 193.348511,1124.631592 
	C201.053879,1105.014404 211.688919,1086.946045 226.131561,1071.615112 
	C245.136017,1051.441772 269.407471,1040.407349 296.049042,1033.956299 
	C324.902496,1026.969727 354.270111,1025.664673 383.636627,1027.266724 
	C411.605347,1028.792725 438.780273,1034.979614 463.934937,1048.053467 
	C497.109741,1065.295776 522.143005,1089.961548 535.325256,1125.731201 
	C541.147522,1141.529663 545.109802,1157.592529 547.161743,1174.322388 
	C550.021423,1197.637695 549.949524,1221.000610 550.042053,1244.394165 
	C550.055664,1247.830933 548.917603,1249.051514 545.433289,1249.045166 
	C500.109192,1248.963623 454.784729,1248.949219 409.460724,1249.059814 
	C405.332062,1249.070068 404.951874,1247.045410 404.965332,1243.794189 
	C405.042511,1225.131470 405.423340,1206.453857 404.782928,1187.812866 
	C404.538971,1180.712402 402.946503,1173.212280 400.069946,1166.737793 
	C393.299957,1151.500244 370.835876,1140.919678 354.476685,1144.357422 
	C339.453156,1147.514648 327.007019,1154.875610 320.649719,1169.259155 
	C317.720245,1175.887207 316.208557,1183.695801 316.190765,1190.974243 
	C315.919281,1301.951416 315.892792,1412.929688 316.094116,1523.907227 
	C316.134094,1545.942261 327.500458,1563.458740 348.663330,1571.012573 
	C363.523163,1576.316528 377.321045,1571.986206 389.412140,1562.130737 
	C403.373108,1550.751099 409.566254,1535.699707 409.981567,1518.053833 
	C410.439453,1498.598022 410.789185,1479.137695 410.910828,1459.677490 
	C410.937317,1455.438599 411.964417,1453.891724 416.490051,1453.908447 
	C459.147644,1454.065796 501.806274,1454.063232 544.463928,1453.911011 
	C548.928650,1453.895142 550.116394,1455.325317 550.080017,1459.637329 
	C549.894531,1481.631348 550.438599,1503.639404 549.863098,1525.619995 
	C549.341980,1545.521118 547.148010,1565.305786 540.328003,1584.249023 
	C532.661194,1605.543945 519.783447,1623.035767 502.347900,1637.467896 
	C489.486298,1648.114014 475.830597,1657.436768 460.911438,1664.848755 
	C454.699738,1667.934814 448.127747,1670.295776 440.970825,1673.068359 
	C439.419952,1673.356201 438.602600,1673.516235 437.817780,1673.774902 
	C399.444336,1686.424561 360.248718,1687.577271 320.585999,1682.155029 
	C313.079834,1681.128906 305.583618,1680.030151 298.082825,1678.964844 
z"/>
<path fill="#B29229" opacity="1.000000" stroke="none" 
	d="
M1070.120361,1672.852783 
	C1070.080566,1670.520874 1070.005859,1668.188965 1070.005859,1665.857056 
	C1070.000488,1460.552734 1070.000854,1255.248535 1070.000854,1049.944214 
	C1070.000854,1049.110962 1069.998291,1048.277832 1070.002319,1047.444580 
	C1070.033447,1041.023315 1070.033936,1041.006226 1076.726196,1041.003296 
	C1097.223267,1040.994507 1117.720337,1041.000000 1138.217407,1041.000000 
	C1219.705933,1041.000000 1301.194336,1040.999146 1382.682861,1041.001465 
	C1389.988770,1041.001709 1389.997803,1041.011597 1389.998535,1048.348633 
	C1390.001953,1083.510254 1390.002441,1118.671997 1389.998169,1153.833618 
	C1389.997314,1160.981323 1389.985718,1160.996704 1382.998535,1160.997314 
	C1327.339722,1161.001831 1271.680908,1160.998169 1216.022095,1161.002319 
	C1209.011963,1161.002808 1209.000244,1161.017090 1208.999390,1168.143066 
	C1208.995239,1203.638062 1209.090942,1239.133423 1208.891357,1274.627319 
	C1208.863281,1279.617188 1210.174194,1281.134033 1215.293701,1281.112671 
	C1261.453003,1280.919922 1307.613403,1280.998535 1353.773560,1281.002808 
	C1360.981567,1281.003540 1360.996582,1281.015747 1360.997437,1287.941040 
	C1361.002441,1327.768677 1361.003540,1367.596436 1360.995972,1407.424072 
	C1360.994751,1413.969238 1360.972290,1413.992310 1354.404297,1413.993286 
	C1308.244141,1414.000854 1262.083984,1413.995728 1215.923828,1414.000732 
	C1209.019775,1414.001465 1209.001465,1414.016479 1209.000488,1420.740479 
	C1208.994629,1460.734741 1209.089722,1500.729614 1208.884033,1540.722778 
	C1208.857788,1545.848877 1210.397095,1547.140137 1215.377563,1547.125610 
	C1271.202637,1546.963379 1327.028198,1547.021851 1382.853638,1547.026367 
	C1389.983276,1547.026978 1390.000000,1547.040771 1389.997314,1554.058228 
	C1389.981812,1593.385620 1389.957520,1632.713013 1389.432129,1672.510986 
	C1284.323242,1672.987183 1179.718506,1672.993530 1075.113892,1672.992310 
	C1073.449341,1672.992310 1071.784912,1672.901367 1070.120361,1672.852783 
z"/>
<path fill="#B29229" opacity="1.000000" stroke="none" 
	d="
M441.002655,323.857391 
	C453.707977,330.248108 467.012482,335.688385 478.987427,343.237671 
	C500.493652,356.795746 517.166992,375.011627 528.636536,398.147247 
	C536.925110,414.866241 542.107239,432.392181 545.497009,450.486725 
	C547.502502,461.191681 547.903564,472.198730 548.980469,483.074432 
	C549.127563,484.560211 548.970520,486.073578 549.019958,487.571991 
	C549.298096,495.999084 549.304993,495.999756 540.881348,495.999817 
	C502.216705,496.000092 463.552094,496.002502 424.887451,495.997345 
	C417.982605,495.996399 418.795135,495.963776 418.649170,489.317993 
	C418.219757,469.766876 415.327789,450.441498 400.999207,435.793732 
	C382.989807,417.383087 357.356415,417.981445 338.804077,434.559631 
	C323.715912,448.042328 321.797455,465.298370 325.454224,483.893372 
	C328.475647,499.257690 336.379974,511.637390 348.178741,521.966003 
	C356.437592,529.195740 363.640625,537.617432 371.688660,545.105347 
	C385.139160,557.619812 398.893677,569.807434 412.509552,582.144348 
	C420.240906,589.149536 428.074371,596.047974 435.645172,603.223145 
	C451.802856,618.536377 468.173950,633.649231 483.790100,649.501831 
	C498.225403,664.155701 511.374939,679.968201 522.830688,697.174316 
	C536.068542,717.057007 545.241760,738.535278 548.601013,762.157715 
	C549.868652,771.071594 549.114929,780.298157 548.985779,789.377930 
	C548.870239,797.499390 548.576416,805.632507 547.960205,813.729980 
	C545.972534,839.849548 540.697021,865.110596 529.114624,888.908569 
	C521.812561,903.911804 512.624512,917.546082 499.484009,927.629211 
	C488.123566,936.346375 475.776611,944.027954 463.101410,950.719543 
	C446.511108,959.478027 428.537811,964.888428 410.232452,969.201172 
	C386.889313,974.700989 363.174652,976.463257 339.454590,974.756470 
	C308.310822,972.515686 278.654907,964.443909 252.572113,946.262085 
	C230.055313,930.565918 213.967056,909.646118 203.028046,884.597717 
	C194.737198,865.613159 189.841263,845.674866 187.269455,825.245972 
	C185.720352,812.940857 185.787933,800.436951 184.959885,788.033630 
	C184.691254,784.010071 186.325470,782.931519 190.151047,782.941345 
	C229.982010,783.043762 269.813507,783.053772 309.644348,782.928772 
	C313.752808,782.915894 315.205872,784.144226 315.063080,788.316956 
	C314.519653,804.198120 316.013367,819.815491 322.011017,834.744385 
	C326.536316,846.008423 333.463501,855.437561 343.836945,861.859863 
	C359.489838,871.550598 379.890869,869.770569 394.587097,857.887695 
	C409.570923,845.772400 415.788239,829.645996 418.251282,810.886230 
	C421.039276,789.651245 410.996338,774.442871 398.242188,759.641174 
	C380.034363,738.510376 357.610168,722.043762 337.080505,703.483154 
	C326.396027,693.823303 315.828918,684.029541 304.995575,674.539612 
	C291.310822,662.551819 277.099854,651.149109 263.694427,638.862732 
	C252.211792,628.338684 241.337936,617.122681 230.564362,605.859253 
	C214.024826,588.567749 203.862152,567.598267 197.198135,544.899719 
	C193.314819,531.672546 191.691025,518.058533 190.805908,504.226318 
	C189.037796,476.595795 193.629929,450.092072 202.875580,424.260223 
	C213.124039,395.626526 229.440170,370.906342 252.077637,350.540131 
	C265.302094,338.642426 280.900574,330.637451 298.080383,324.081726 
	C299.743988,323.686737 300.736938,323.542755 301.675323,323.233246 
	C346.132965,308.570099 390.620941,308.781403 435.162506,322.866547 
	C437.027191,323.456268 439.052277,323.538666 441.002655,323.857391 
z"/>
<path fill="#3FAB3C" opacity="1.000000" stroke="none" 
	d="
M298.062073,1679.436279 
	C305.583618,1680.030151 313.079834,1681.128906 320.585999,1682.155029 
	C360.248718,1687.577271 399.444336,1686.424561 437.817780,1673.774902 
	C438.602600,1673.516235 439.419952,1673.356201 440.604340,1673.158691 
	C440.989075,1723.661133 440.994659,1774.155029 440.990906,1824.648926 
	C440.990265,1832.923706 440.919312,1832.994385 432.606934,1832.995728 
	C390.445374,1833.002686 348.283783,1833.003540 306.122223,1832.994751 
	C298.137573,1832.993042 298.006134,1832.862549 298.006866,1824.890015 
	C298.011414,1776.562622 298.028473,1728.235229 298.062073,1679.436279 
z"/>
<path fill="#E31E24" opacity="1.000000" stroke="none" 
	d="
M440.999847,323.400024 
	C439.052277,323.538666 437.027191,323.456268 435.162506,322.866547 
	C390.620941,308.781403 346.132965,308.570099 301.675323,323.233246 
	C300.736938,323.542755 299.743988,323.686737 298.388916,323.875702 
	C298.001343,273.108185 298.001343,222.372910 298.001343,171.319702 
	C345.750000,171.319702 392.955933,171.319702 440.997040,171.319702 
	C440.997040,221.882492 440.997040,272.412598 440.999847,323.400024 
z"/>
<path fill="#9F7F21" opacity="1.000000" stroke="none" 
	d="
M1070.385376,1673.177490 
	C1071.784912,1672.901367 1073.449341,1672.992310 1075.113892,1672.992310 
	C1179.718506,1672.993530 1284.323242,1672.987183 1389.384521,1672.975586 
	C1387.935913,1673.312866 1386.030762,1673.955444 1384.125366,1673.956299 
	C1281.443237,1674.004883 1178.761108,1674.001587 1076.078979,1673.978516 
	C1074.269409,1673.978149 1072.459961,1673.667969 1070.385376,1673.177490 
z"/>
<path fill="#9F7F21" opacity="1.000000" stroke="none" 
	d="
M1463.492920,1673.177979 
	C1524.815796,1672.931763 1586.434326,1672.966431 1648.520264,1673.001953 
	C1647.074951,1673.334717 1645.162109,1673.955200 1643.248901,1673.956909 
	C1585.065796,1674.008179 1526.882690,1674.003052 1468.699585,1673.976074 
	C1467.062500,1673.975342 1465.425537,1673.639038 1463.492920,1673.177979 
z"/>
<path fill="#9F7F21" opacity="1.000000" stroke="none" 
	d="
M626.397217,1673.210205 
	C670.045166,1672.912476 713.969971,1672.925049 758.348999,1672.916504 
	C757.237183,1673.262329 755.671570,1673.947632 754.105042,1673.949829 
	C712.941711,1674.007935 671.778320,1673.999634 630.614929,1673.974854 
	C629.301208,1673.973999 627.987671,1673.678589 626.397217,1673.210205 
z"/>
<path fill="#9F7F21" opacity="1.000000" stroke="none" 
	d="
M879.252930,1673.278564 
	C917.922913,1672.997437 956.941711,1672.957031 996.420166,1672.884644 
	C995.507324,1673.232300 994.135437,1673.941772 992.762573,1673.943848 
	C956.021667,1673.999390 919.280640,1673.985718 882.539673,1673.958252 
	C881.560242,1673.957520 880.581055,1673.672119 879.252930,1673.278564 
z"/>
<path fill="#47704C" opacity="1.000000" stroke="none" 
	d="
M1686.000122,625.000000 
	C1686.000122,684.652649 1686.006470,743.805359 1685.994995,802.958008 
	C1685.992554,815.647888 1684.168579,827.933594 1675.604004,837.965149 
	C1657.651367,858.992554 1631.902832,863.128723 1609.540161,847.057190 
	C1595.586670,837.029114 1590.115967,822.851318 1590.090088,806.524841 
	C1589.917114,697.217590 1589.866455,587.909729 1590.098389,478.602753 
	C1590.153198,452.816498 1603.090088,435.760986 1628.389160,429.589325 
	C1644.243652,425.721710 1658.358154,431.359863 1670.538208,441.995758 
	C1681.803955,451.833038 1685.804810,464.868866 1685.888916,479.035156 
	C1686.176880,527.521973 1685.999878,576.011536 1686.000122,625.000000 
z"/>
<path fill="#47704C" opacity="1.000000" stroke="none" 
	d="
M735.000061,565.000000 
	C735.000488,535.512268 734.807190,506.522522 735.110474,477.537933 
	C735.211304,467.898438 737.106628,458.415527 742.874878,450.225037 
	C751.881592,437.436127 763.949585,430.404541 779.758911,428.833923 
	C798.439941,426.978088 820.446289,440.775970 826.656616,457.610840 
	C828.961853,463.860077 830.804871,470.721313 830.820007,477.308075 
	C831.071655,587.094360 831.161804,696.881836 830.872986,806.667969 
	C830.809509,830.810120 819.558044,846.991882 794.821228,855.026855 
	C779.971313,859.850403 766.389465,855.610962 754.115967,846.590088 
	C740.035583,836.241089 735.044434,821.615784 735.030273,804.898621 
	C734.962708,725.099121 735.000000,645.299561 735.000061,565.000000 
z"/>
<path fill="#47704C" opacity="1.000000" stroke="none" 
	d="
M1669.230957,1158.743896 
	C1677.805664,1167.342651 1680.984863,1178.037109 1681.814819,1189.200317 
	C1682.848877,1203.112427 1682.940918,1217.115234 1682.954468,1231.079224 
	C1683.042969,1322.245361 1683.111206,1413.411865 1682.850830,1504.577271 
	C1682.820312,1515.281128 1681.452637,1526.113281 1679.456787,1536.649658 
	C1676.156860,1554.069946 1664.796753,1564.375122 1647.910156,1568.859009 
	C1634.247925,1572.486694 1620.416138,1574.798950 1606.217529,1575.129150 
	C1600.929443,1575.252075 1599.820068,1573.398193 1599.900269,1568.545532 
	C1600.164551,1552.549927 1599.999756,1536.547241 1599.999756,1520.547363 
	C1599.999756,1396.881348 1599.999268,1273.215454 1600.000854,1149.549438 
	C1600.000977,1142.009888 1600.012695,1142.168335 1607.617798,1141.968506 
	C1626.003540,1141.485596 1643.667725,1144.328613 1660.097778,1152.996826 
	C1663.167847,1154.616577 1666.020508,1156.648438 1669.230957,1158.743896 
z"/>
<path fill="#47704C" opacity="1.000000" stroke="none" 
	d="
M838.958496,1248.634521 
	C837.855957,1257.896606 835.993530,1266.421143 830.661804,1273.808472 
	C819.007324,1289.956665 805.206116,1302.252441 783.475830,1301.053467 
	C777.163696,1300.705200 770.801208,1300.732056 764.489868,1301.086426 
	C759.938171,1301.341919 758.887756,1299.562012 758.919678,1295.319092 
	C759.091125,1272.494385 758.999268,1249.667603 758.999573,1226.841553 
	C758.999878,1199.017090 759.067810,1171.192261 758.929077,1143.368530 
	C758.908813,1139.306274 760.043518,1137.397339 764.278503,1138.026367 
	C775.230835,1139.652832 786.258179,1140.878052 797.127319,1142.939575 
	C818.167847,1146.930176 829.137512,1161.205200 835.041748,1180.726074 
	C839.509338,1195.497314 839.066711,1210.573364 839.004089,1225.677368 
	C838.972961,1233.174805 838.984558,1240.672485 838.958496,1248.634521 
z"/>
<path fill="#47704C" opacity="1.000000" stroke="none" 
	d="
M1205.511719,588.888916 
	C1194.473022,589.290405 1183.852783,589.568787 1173.240967,590.036133 
	C1169.553345,590.198608 1167.916626,589.227417 1167.926514,585.077881 
	C1168.049072,533.957214 1168.026611,482.836151 1167.961914,431.715302 
	C1167.957764,428.417847 1168.823608,426.880981 1172.446289,426.955353 
	C1188.153687,427.277832 1203.557495,429.362244 1218.063232,435.601379 
	C1232.965332,442.010956 1239.532959,455.136261 1243.937134,469.664032 
	C1247.235840,480.544708 1248.367920,491.717499 1248.019775,503.074829 
	C1247.633057,515.689880 1247.452393,528.311279 1247.063110,540.926270 
	C1246.740845,551.366272 1242.079712,560.099487 1235.484131,567.774658 
	C1227.403198,577.178162 1218.398071,585.490295 1205.511719,588.888916 
z"/>
</svg>