<svg xmlns="http://www.w3.org/2000/svg" xmlns:xlink="http://www.w3.org/1999/xlink" id="Layer_1" x="0px" y="0px" viewBox="0 0 99 46.9" style="enable-background:new 0 0 99 46.9;" xml:space="preserve"><style type="text/css">	.st0{fill:#203B79;}	.st1{fill:#F6A113;}	.st2{fill:#D19703;}	.st3{fill:#C01727;}	.st4{fill:#DE082F;}	.st5{fill:#233363;}</style><g>	<polygon class="st0" points="85.6,23.9 77.9,23.9 81,18.4 88.6,18.4  "></polygon>	<polygon class="st1" points="95.9,5.5 88.2,5.5 91.3,0 99,0  "></polygon>	<polygon class="st2" points="84.6,7.1 88.2,5.5 91.3,0 87.7,1.6  "></polygon>	<polygon class="st3" points="79.2,16.6 82.9,15 86.3,9 82.6,10.5  "></polygon>	<polygon class="st4" points="82.9,15 90.5,15 93.9,9 86.3,9  "></polygon>	<polygon class="st0" points="16.5,1.6 8.5,16.3 6.8,1.6 0.3,1.6 3.5,25.3 10.2,25.3 23.4,1.6  "></polygon>	<path class="st0" d="M27,1.6L12.6,25.3l7.2,0l2.9-5l7.7,0l0.8,5l6.5,0L33.3,1.6L27,1.6z M29.5,14.9l-3.7,0l2.9-5c0,0,0,0,0,0   c0,0.1,0,0.1,0,0.2L29.5,14.9z"></path>	<polygon class="st0" points="45.4,19.8 49.2,1.7 42.8,1.6 37.7,25.4 52.6,25.4 53.9,19.8  "></polygon>	<polygon class="st0" points="72.4,7.1 73.6,1.7 58.6,1.7 53.6,25.4 68.7,25.4 69.8,20 61.2,20 61.9,16.6 70.5,16.6 71.7,10.5    63.2,10.5 63.9,7.1  "></polygon>	<polygon class="st0" points="74.3,25.4 71.6,25.4 72.7,20 77.3,20  "></polygon>	<polygon class="st4" points="82.6,10.5 74.7,10.5 73.4,16.6 79.2,16.6  "></polygon>	<polygon class="st1" points="84.6,7.1 75.4,7.1 76.5,1.6 87.7,1.6  "></polygon>	<polygon class="st5" points="74.3,25.4 77.9,23.9 81,18.4 77.3,20  "></polygon>	<path class="st0" d="M11.9,46.4c-1.1,0.3-2.3,0.5-3.5,0.5c-5,0-8.4-3.2-8.4-7.9c0-3.2,1.4-6.2,3.7-8.2c1.8-1.5,4.3-2.3,7.1-2.3   c1.7,0,3.1,0.3,4.4,0.8l-0.7,2.2c-1.2-0.5-2.4-0.8-3.7-0.8c-4.6,0-8,3.4-8,8c0,3.6,2.3,5.9,6,5.9c1.3,0,2.5-0.2,3.5-0.7L11.9,46.4z   "></path>	<path class="st0" d="M25,28.7h2.7l3.9,17.9H29l-1-4.5h-8.8l-2.8,4.5h-2.9L25,28.7z M27.6,40.1l-1.2-6.3c-0.3-1.6-0.3-1.9-0.4-3   c-0.2,0.6-0.7,1.5-1.4,2.8l-4,6.5H27.6z"></path>	<path class="st0" d="M37.7,28.7h3.2c2.9,0,4,0.2,5.1,0.8c1.2,0.6,1.9,1.9,1.9,3.5c0,2.6-1.9,4.7-4.6,5c1,0.4,1.2,0.7,1.6,2.1   l1.7,6.6H44l-1.4-5.9c-0.4-1.7-0.8-2-3-2h-1.4l-1.7,7.9h-2.6L37.7,28.7z M40.1,36.5c1.6,0,2.6-0.2,3.5-0.6c1-0.5,1.6-1.5,1.6-2.6   c0-0.8-0.4-1.6-1-1.9c-0.6-0.4-1.4-0.5-3.1-0.5h-1.3l-1.2,5.6H40.1z"></path>	<path class="st0" d="M53.3,28.7h2.8c3.5,0,5.5,0.4,7.2,1.5c1.9,1.2,2.9,3.3,2.9,6.2c0,3.5-1.5,6.8-3.9,8.4c-2,1.4-4.5,1.9-9.5,1.9   h-3.4L53.3,28.7z M54.2,44.4c2.9,0,4.6-0.4,6-1.2c2.1-1.3,3.4-3.8,3.4-6.7c0-3.9-2.1-5.6-7.1-5.6h-1l-2.9,13.5H54.2z"></path></g></svg>